<svg width="42" height="42" viewBox="0 0 42 42" fill="none" xmlns="http://www.w3.org/2000/svg">
<g clip-path="url(#clip0_7940_663)">
<path d="M36.7542 2.52L39.48 5.2458V36.7584L36.7542 39.4842H5.2458L2.52 36.7584V5.2458L5.2458 2.52H36.7584M37.8042 0H4.2L0 4.2V37.8C1.6422 39.4422 2.5578 40.3578 4.2 42H37.8L42 37.8V4.2C40.3578 2.5578 39.4422 1.6422 37.8 0H37.8042Z" fill="#A6A6A6"/>
<path d="M17.3502 28.2701L13.0326 23.9483L26.5482 9.99169L32.5668 8.73169L31.3068 14.7503L17.3502 28.2701Z" fill="#A6A6A6"/>
<path d="M16.842 30.4795L10.8192 24.4609L12.8772 21.9619L19.3368 28.4257L16.842 30.4795Z" fill="#A6A6A6"/>
<path d="M10.9284 32.1384L9.16022 30.3744L15.4098 23.688L17.6148 25.893L10.9284 32.1384Z" fill="#A6A6A6"/>
<path d="M11.4849 31.4188L9.83959 29.7735C9.61816 29.5521 9.25916 29.5521 9.03773 29.7735L8.15865 30.6526C7.93723 30.874 7.93723 31.233 8.15865 31.4544L9.80395 33.0997C10.0254 33.3211 10.3844 33.3211 10.6058 33.0997L11.4849 32.2206C11.7063 31.9992 11.7063 31.6402 11.4849 31.4188Z" fill="#A6A6A6"/>
<path d="M24.6498 28.2701L28.9674 23.9483L15.4518 9.99169L9.43323 8.73169L10.6932 14.7503L24.6498 28.2701Z" fill="#A6A6A6"/>
<path d="M25.158 30.4795L31.1808 24.4609L29.1228 21.9619L22.6632 28.4257L25.158 30.4795Z" fill="#A6A6A6"/>
<path d="M31.0716 32.1384L32.8398 30.3744L26.5902 23.688L24.3852 25.893L31.0716 32.1384Z" fill="#A6A6A6"/>
<path d="M32.2001 33.1007L33.8454 31.4554C34.0668 31.2339 34.0668 30.8749 33.8454 30.6535L32.9663 29.7744C32.7449 29.553 32.3859 29.553 32.1645 29.7744L30.5192 31.4197C30.2977 31.6412 30.2977 32.0002 30.5192 32.2216L31.3983 33.1007C31.6197 33.3221 31.9787 33.3221 32.2001 33.1007Z" fill="#A6A6A6"/>
</g>
<defs>
<clipPath id="clip0_7940_663">
<rect width="42" height="42" fill="white"/>
</clipPath>
</defs>
</svg>
